<svg width="21" height="28" viewBox="0 0 21 28" fill="none" xmlns="http://www.w3.org/2000/svg">
<path d="M13.1416 0.456543C13.2837 0.886294 13.3667 1.35073 13.3667 1.8376V8.3301C13.3667 10.1531 12.3045 11.6688 10.9133 11.9932C10.916 12.0143 10.9275 12.0333 10.9275 12.0612V17.2767C10.9275 17.5793 10.6807 17.8275 10.372 17.8275C10.0694 17.8275 9.82186 17.5793 9.82186 17.2767V12.0612C9.82186 12.0333 9.83478 12.015 9.83682 11.9932C8.44554 11.6688 7.3827 10.1531 7.3827 8.3301V1.8376C7.3827 1.35141 7.46498 0.886294 7.60778 0.456543C3.48902 1.5418 0.409302 5.27697 0.409302 9.72612V18.3728C0.408622 23.6679 4.7409 28.0001 10.0347 28.0001H10.714C16.0085 28.0001 20.3401 23.6679 20.3401 18.3728V9.72612C20.3401 5.27697 17.2597 1.5418 13.1416 0.456543Z" fill="white"/>
</svg>
